<?xml version="1.0" standalone="no"?>
<!DOCTYPE svg PUBLIC "-//W3C//DTD SVG 20010904//EN"
 "http://www.w3.org/TR/2001/REC-SVG-20010904/DTD/svg10.dtd">
<svg version="1.0" xmlns="http://www.w3.org/2000/svg"
 width="256.000000pt" height="256.000000pt" viewBox="0 0 256.000000 256.000000"
 preserveAspectRatio="xMidYMid meet">
<metadata>
Created by potrace 1.11, written by Peter Selinger 2001-2013
</metadata>
<g transform="translate(0.000000,256.000000) scale(0.100000,-0.100000)"
fill="#000000" stroke="none">
<path d="M1840 2441 c0 -5 -8 -8 -19 -6 -19 4 -20 -1 -7 -80 4 -22 9 -55 12
-74 5 -39 8 -58 24 -159 12 -72 7 -157 -10 -167 -4 -3 -34 6 -65 20 -52 23
-154 55 -230 71 -48 10 -286 11 -335 2 -25 -5 -61 -11 -80 -14 -97 -16 -328
-109 -435 -177 -89 -56 -228 -168 -276 -222 -5 -5 -27 -30 -50 -55 -91 -102
-176 -253 -223 -395 -34 -106 -36 -121 -43 -256 -6 -122 10 -212 42 -239 8 -7
13 -16 10 -20 -3 -4 22 -7 54 -6 42 2 66 9 86 24 15 12 31 19 36 16 5 -3 9 0
9 6 0 6 5 8 10 5 6 -3 10 1 10 9 0 14 6 18 26 15 3 0 16 11 30 26 13 14 28 24
33 20 5 -3 16 4 24 15 7 11 17 17 20 13 4 -3 7 -1 7 7 0 10 3 10 15 0 13 -11
14 -10 9 4 -5 12 0 19 15 23 11 3 21 9 21 14 0 5 5 9 11 9 5 0 7 -6 3 -13 -4
-6 3 -2 15 11 26 27 35 28 27 4 -6 -16 -5 -16 7 0 8 10 17 15 20 11 4 -3 7 -1
7 7 0 10 4 10 17 -1 11 -10 14 -10 9 -1 -11 18 8 15 32 -7 12 -10 23 -29 26
-42 4 -29 -20 -94 -48 -130 -12 -15 -30 -39 -40 -53 -11 -15 -28 -37 -39 -49
-49 -56 -95 -139 -91 -164 1 -7 2 -19 3 -27 1 -13 49 -66 83 -91 7 -5 27 -11
43 -13 17 -1 37 -5 45 -8 8 -4 33 -7 55 -7 22 -1 43 -6 47 -12 5 -6 8 -5 8 3
0 7 5 10 10 7 12 -7 176 -7 287 0 l73 5 -21 -55 c-23 -61 -19 -92 13 -104 28
-10 70 -2 61 12 -4 6 0 8 9 4 12 -4 14 -1 11 14 -3 10 0 19 6 19 6 0 11 3 10
8 -3 17 14 51 22 46 5 -3 6 3 2 12 -4 12 -3 15 5 10 7 -4 10 -2 7 6 -3 8 2 22
11 33 8 11 13 13 9 5 -4 -10 -2 -10 8 2 15 19 102 42 124 34 9 -4 11 -1 7 6
-5 8 -2 9 9 5 10 -3 17 -2 17 3 0 6 8 10 18 10 9 1 34 7 54 14 27 10 40 10 48
2 8 -8 9 -6 4 9 -7 18 -6 19 9 6 16 -12 17 -12 11 5 -4 10 -4 16 0 12 5 -4 23
2 42 13 39 21 59 25 48 7 -4 -7 -3 -8 5 -4 6 4 9 11 6 16 -7 11 24 22 37 13 7
-3 8 -1 4 5 -4 7 -1 12 8 12 9 0 16 4 16 8 0 9 71 47 83 44 4 -1 7 5 7 13 0 8
4 15 10 15 5 0 7 -8 4 -17 -3 -10 2 -6 10 8 15 27 65 65 79 61 4 -1 6 4 5 10
-2 7 3 12 10 10 8 -1 11 2 8 7 -8 12 20 34 33 26 7 -3 8 0 5 9 -4 9 1 18 10
22 9 3 14 10 11 14 -3 4 2 10 9 13 8 3 17 1 20 -6 3 -7 4 -4 3 5 -3 27 35 79
53 72 12 -4 12 -3 3 7 -9 9 -8 18 6 38 23 35 62 111 56 111 -3 0 3 17 14 39
11 21 17 41 14 45 -4 3 -2 6 3 6 5 0 9 10 10 23 2 32 9 65 16 73 4 3 4 13 1
21 -3 8 0 19 8 24 12 7 12 9 0 9 -11 0 -11 3 0 17 12 14 12 15 1 9 -11 -7 -12
-4 -5 10 7 16 9 88 3 104 -8 22 -6 40 3 40 9 0 8 3 0 8 -7 4 -14 26 -15 48 -2
21 -5 41 -8 44 -12 12 -39 103 -33 113 3 6 1 7 -5 3 -11 -6 -16 6 -13 27 0 4
-3 7 -8 7 -5 0 -23 21 -39 48 -16 26 -52 71 -81 101 -55 58 -56 66 -20 125 18
30 70 61 254 154 50 24 96 49 102 54 18 14 -38 116 -101 185 -40 44 -124 107
-146 108 -3 1 -14 6 -25 11 -19 11 -94 30 -125 33 -92 9 -150 9 -144 0 4 -7
-1 -7 -15 0 -13 7 -21 8 -21 2z m-724 -1267 c55 -36 68 -136 26 -193 -41 -55
-128 -80 -181 -52 -28 15 -62 76 -62 108 2 51 4 63 13 63 5 0 7 4 4 9 -7 11
19 33 28 24 4 -4 4 1 0 11 -5 13 -4 17 3 13 6 -4 14 0 17 9 4 9 9 14 12 11 3
-3 17 1 31 8 28 15 76 10 109 -11z"/>
<path d="M2175 820 c3 -5 8 -10 11 -10 2 0 4 5 4 10 0 6 -5 10 -11 10 -5 0 -7
-4 -4 -10z"/>
<path d="M307 679 c7 -7 15 -10 18 -7 3 3 -2 9 -12 12 -14 6 -15 5 -6 -5z"/>
<path d="M1370 319 c0 -5 5 -7 10 -4 6 3 10 8 10 11 0 2 -4 4 -10 4 -5 0 -10
-5 -10 -11z"/>
</g>
</svg>
